# xmcd
# 
# Track frame offsets:
#     187
#     26555
#     49607
#     83322
#     108280
#     127277
#     147667
# 
# Disc length: 2284
# 
# Revision: 7
# Processed by: cddbd v1.5.2PL0 Copyright (c) Steve Scherf et al.
# Submitted via: fre:ac v1.0.17
# 
DISCID=5908ea07
DTITLE=Steely Dan - Gaucho (MCAD-37220)
DYEAR=1980
DGENRE=Rock
TTITLE0=Babylon Sisters
TTITLE1=Hey Nineteen
TTITLE2=Glamour Profession
TTITLE3=Gaucho
TTITLE4=Time Out Of Mind
TTITLE5=My Rival
TTITLE6=Third World Man
EXTD=YEAR: 1980 ID3G:  17
EXTT0=
EXTT1=
EXTT2=
EXTT3=
EXTT4=
EXTT5=
EXTT6=
PLAYORDER=
